<svg width="1024" height="1024" viewBox="0 0 1024 1024" fill="none" xmlns="http://www.w3.org/2000/svg">
  <rect width="1024" height="1024" rx="56" fill="#FBFAF6"/>
  <rect width="1024" height="1024" rx="56" fill="url(#grain)" opacity="0.18"/>

  <g stroke="#34363C" stroke-width="10" stroke-linecap="round" stroke-linejoin="round">
    <rect x="176" y="82" width="224" height="118" rx="4" fill="#F5F6E7"/>
    <path d="M255 209h66v27h-66z" fill="#34363C"/>
    <line x1="239" y1="247" x2="338" y2="247"/>

    <path d="M471 141h95" />
    <path d="M540 107l35 34-35 34" />

    <rect x="624" y="82" width="220" height="118" rx="4" fill="white"/>
    <path d="M700 209h68v27h-68z" fill="#34363C"/>
  </g>

  <g font-family="Arial, Helvetica, sans-serif" font-weight="700" fill="#23252A">
    <text x="224" y="164" font-size="80">16:9</text>
    <text x="682" y="164" font-size="80">1:1</text>
  </g>

  <g stroke="#34363C" stroke-width="10" stroke-linecap="round" stroke-linejoin="round">
    <rect x="258" y="414" width="680" height="342" rx="22" fill="url(#screenShell)"/>
    <rect x="282" y="438" width="632" height="246" rx="10" fill="#FBFBF8"/>
    <path d="M532 756h132l14 70H518l14-70Z" fill="url(#standGrad)"/>
    <rect x="466" y="826" width="264" height="22" rx="8" fill="#E9E9EB"/>
    <rect x="468" y="459" width="130" height="172" rx="4" fill="#F6F7E5"/>
    <rect x="682" y="452" width="178" height="194" rx="4" fill="#F6F7E5"/>
    <rect x="468" y="578" width="130" height="53" fill="#A6AB91"/>
  </g>

  <g stroke="#34363C" stroke-width="8" stroke-linecap="round" stroke-linejoin="round">
    <path d="M515 504h37l18 39v79c0 12-6 21-20 21h-35c-14 0-20-9-20-21v-79l20-39Z" fill="#E1E7B8"/>
    <path d="M523 478h22l8 26h-38l8-26Z" fill="#93A05E"/>
    <path d="M750 497h39l19 40v81c0 14-7 23-22 23h-37c-15 0-22-9-22-23v-81l23-40Z" fill="#E1E7B8"/>
    <path d="M758 470h24l9 27h-42l9-27Z" fill="#93A05E"/>
  </g>

  <path d="M620 536h38v-26l37 37-37 37v-26h-38v-22Z" fill="#5C5F66" stroke="#34363C" stroke-width="8" stroke-linejoin="round"/>

  <g transform="translate(814 431)">
    <circle cx="45" cy="45" r="43" fill="#567139"/>
    <path d="M24 44l15 15 28-31" stroke="#FBFAF6" stroke-width="10" stroke-linecap="round" stroke-linejoin="round"/>
  </g>

  <g stroke="#1F1F22" stroke-width="8" stroke-linecap="round" stroke-linejoin="round">
    <path d="M34 908h170c10-93 55-149 129-165-10-25-31-42-59-46-42-4-78 17-99 58-36 8-70 34-85 73-11 30-17 56-20 80Z" fill="#B8C48A"/>
    <path d="M111 540c42-52 119-65 184-5-3 46-22 74-58 90-42 18-83 19-124 3-22-38-23-67-2-88Z" fill="#4A3B35"/>
    <path d="M34 910c16-68 36-133 64-196" />
    <path d="M163 919c-21-41-46-79-75-114" />
    <path d="M81 752c11-73 74-121 145-111 52 8 89 42 97 93-23 22-50 35-82 39-67 9-131-12-160-21Z" fill="#FBE2C5"/>
    <path d="M127 666c18-48 57-78 106-90 41 4 72 25 90 63-34 9-59 37-67 80-49-3-93-20-129-53Z" fill="#3A2F2B"/>
    <path d="M216 809c18 16 39 25 64 27" />
    <circle cx="260" cy="741" r="6" fill="#1F1F22"/>
  </g>

  <defs>
    <linearGradient id="screenShell" x1="258" y1="414" x2="938" y2="756" gradientUnits="userSpaceOnUse">
      <stop stop-color="#A9A9B2"/>
      <stop offset="1" stop-color="#C7C7CE"/>
    </linearGradient>
    <linearGradient id="standGrad" x1="518" y1="756" x2="678" y2="826" gradientUnits="userSpaceOnUse">
      <stop stop-color="#9C9CA4"/>
      <stop offset="1" stop-color="#B8B8C0"/>
    </linearGradient>
    <radialGradient id="grain" cx="0" cy="0" r="1" gradientUnits="userSpaceOnUse" gradientTransform="translate(512 512) rotate(90) scale(700 700)">
      <stop stop-color="#8D6E52" stop-opacity="0.35"/>
      <stop offset="1" stop-color="#8D6E52" stop-opacity="0"/>
    </radialGradient>
  </defs>
</svg>
